<svg width="18" height="18" viewBox="0 0 9 9" fill="none" xmlns="http://www.w3.org/2000/svg">
<path d="M3.5 0H0.5C0.367392 0 0.240215 0.0526784 0.146447 0.146447C0.0526784 0.240215 0 0.367392 0 0.5V3.5C0 3.63261 0.0526784 3.75979 0.146447 3.85355C0.240215 3.94732 0.367392 4 0.5 4H3.5C3.63261 4 3.75979 3.94732 3.85355 3.85355C3.94732 3.75979 4 3.63261 4 3.5V0.5C4 0.367392 3.94732 0.240215 3.85355 0.146447C3.75979 0.0526784 3.63261 0 3.5 0ZM3 3H1V1H3V3ZM8.5 0H5.5C5.36739 0 5.24021 0.0526784 5.14645 0.146447C5.05268 0.240215 5 0.367392 5 0.5V3.5C5 3.63261 5.05268 3.75979 5.14645 3.85355C5.24021 3.94732 5.36739 4 5.5 4H8.5C8.63261 4 8.75979 3.94732 8.85355 3.85355C8.94732 3.75979 9 3.63261 9 3.5V0.5C9 0.367392 8.94732 0.240215 8.85355 0.146447C8.75979 0.0526784 8.63261 0 8.5 0ZM8 3H6V1H8V3ZM3.5 5H0.5C0.367392 5 0.240215 5.05268 0.146447 5.14645C0.0526784 5.24021 0 5.36739 0 5.5V8.5C0 8.63261 0.0526784 8.75979 0.146447 8.85355C0.240215 8.94732 0.367392 9 0.5 9H3.5C3.63261 9 3.75979 8.94732 3.85355 8.85355C3.94732 8.75979 4 8.63261 4 8.5V5.5C4 5.36739 3.94732 5.24021 3.85355 5.14645C3.75979 5.05268 3.63261 5 3.5 5ZM3 8H1V6H3V8ZM7 5C5.897 5 5 5.897 5 7C5 8.103 5.897 9 7 9C8.103 9 9 8.103 9 7C9 5.897 8.103 5 7 5ZM7 8C6.4485 8 6 7.5515 6 7C6 6.4485 6.4485 6 7 6C7.5515 6 8 6.4485 8 7C8 7.5515 7.5515 8 7 8Z" fill="#F5752F"/>
</svg>
