<svg width="47" height="33" viewBox="0 0 47 33" fill="none" xmlns="http://www.w3.org/2000/svg">
<path fill-rule="evenodd" clip-rule="evenodd" d="M20.7351 9.25755L26.3794 19.0302L31.7257 9.77359L26.0813 0.000975631H15.3856L5.31171 17.45L1.33407 24.3444C1.07766 24.7835 1.23151 25.354 1.67382 25.6072C2.11293 25.8636 2.68025 25.7098 2.93987 25.2675L4.08092 23.2899C4.33413 22.8507 4.90145 22.6969 5.34697 22.9501C5.78608 23.2033 5.93672 23.777 5.68351 24.2162L3.50719 27.9887C3.25398 28.4278 3.40142 28.9951 3.84694 29.2547C4.28605 29.5079 4.85337 29.3541 5.11299 28.915L8.706 22.6841C8.95921 22.245 9.52973 22.0911 9.97205 22.3443C10.4112 22.604 10.565 23.1713 10.3118 23.6104L9.69961 24.6713L5.71877 31.5592C5.46556 32.0048 5.61941 32.5721 6.05852 32.8253C6.50083 33.0817 7.06815 32.9311 7.32136 32.4855L11.3054 25.5976L20.7351 9.25755ZM26.2544 23.6905L20.6101 13.9179L15.267 23.1745L20.9114 32.9503H31.6006L41.6745 15.4981L45.6586 8.61011C45.9118 8.16459 45.758 7.59727 45.3188 7.34406C44.8733 7.08444 44.306 7.23829 44.0528 7.68381L42.9085 9.6582C42.6553 10.1037 42.088 10.2544 41.6457 9.99795C41.2034 9.74474 41.0495 9.17742 41.3092 8.7319L43.4823 4.96581C43.7387 4.52029 43.5848 3.95297 43.1425 3.69976C42.7034 3.44335 42.1329 3.59399 41.8797 4.03951L38.2867 10.264C38.027 10.7031 37.4597 10.8569 37.0206 10.6037C36.5751 10.3505 36.4245 9.77679 36.6809 9.33768L37.2931 8.27997L41.2707 1.38882C41.5239 0.946505 41.3701 0.375983 40.9309 0.122773C40.4918 -0.130437 39.9181 0.0202072 39.6649 0.462523L35.6873 7.35367L26.2544 23.6905ZM43.6425 2.83116C43.2291 2.58756 43.0848 2.05229 43.322 1.63883C43.5656 1.21895 44.1009 1.07471 44.5208 1.31831C44.9374 1.55549 45.0817 2.09076 44.8413 2.51064C44.5977 2.92731 44.0624 3.07154 43.6425 2.83116ZM45.681 6.71264C45.2612 6.47545 45.1169 5.94019 45.3605 5.52031C45.6009 5.10043 46.1362 4.95619 46.556 5.19979C46.9695 5.44338 47.1138 5.97865 46.8766 6.39212C46.633 6.812 46.0977 6.95623 45.681 6.71264ZM3.34693 30.1169C3.76681 30.3605 3.90784 30.8958 3.66424 31.3156C3.42065 31.7323 2.88859 31.8766 2.47191 31.6362C2.05203 31.3926 1.9078 30.8573 2.15139 30.4374C2.39178 30.024 2.92384 29.8797 3.34693 30.1169ZM1.31164 26.2354C1.72831 26.479 1.86934 27.0143 1.63215 27.431C1.38856 27.8508 0.853294 27.9919 0.43662 27.7515C0.0167401 27.5111 -0.124287 26.9758 0.119306 26.5559C0.356491 26.1361 0.891756 25.9918 1.31164 26.2354Z" fill="#EA3E5B"/>
</svg>
